<?xml version="1.0" encoding="utf-8"?>
<!-- Generator: Adobe Illustrator 25.4.1, SVG Export Plug-In . SVG Version: 6.00 Build 0)  -->
<svg version="1.1" xmlns="http://www.w3.org/2000/svg" xmlns:xlink="http://www.w3.org/1999/xlink" x="0px" y="0px"
	 viewBox="0 0 496.1 519" style="enable-background:new 0 0 496.1 519;" xml:space="preserve">
<style type="text/css">
	.st0{fill:none;}
</style>
<g id="Layer_2">
</g>
<g id="Layer_1">
	<polygon class="st0" points="298.6,184.4 306.6,189.1 351.4,163.6 351.7,112.2 307.3,86.2 262.6,111.6 262.3,147.5 298.7,168.8 	
		"/>
	<polygon class="st0" points="236.5,111.4 192.1,85.3 147.4,110.8 147.1,162.2 191.5,188.3 199.8,183.5 199.9,168.1 236.3,147.4 	
		"/>
	<g>
		<polygon class="st0" points="250.7,256.4 204.4,229.4 204,198.1 114.8,248.8 209.3,301.9 248,280 286.4,302.7 382.3,250.8 
			297.9,201.2 297.7,228.7 		"/>
		<polygon class="st0" points="216.2,350.4 247.5,368.7 279,350.8 247.7,333.9 		"/>
		<polygon class="st0" points="206,352 206.2,307.7 111,254.6 110.1,409.8 244,487.7 244.4,374.4 207.7,353.1 		"/>
		<polygon class="st0" points="251.5,328.1 282.8,345 283,308.2 251.7,289.9 		"/>
		<path d="M298,189.2l-0.1,12l84.4,49.6l-95.8,51.9L248,280l-38.7,21.9l-94.5-53.1l89.2-50.7l-0.1-11.8l-103,58.6l-1.1,170.6
			L247,501.7l148.2-84.4l1.1-170.6L298,189.2z M244,487.7l-133.9-77.9l1-155.2l95.2,53.1L206,352l1.7,1l36.7,21.4L244,487.7z
			 M247.5,368.7l-31.3-18.3l31.5-16.5l31.3,16.9L247.5,368.7z M282.8,345l-31.3-16.9l0.2-38.2l31.3,18.3L282.8,345z"/>
	</g>
	<path d="M309.4,86.2l-49.6,28.2l-0.2,35.8l-8-4.7l-8.3,4.7l0.2-36.1l-49.3-28.8l-49.6,28.2l-0.4,57.1l49.2,28.8l8.3-4.7l-0.2,36.1
		l49.2,28.8l49.6-28.2l0.2-35.8l8,4.7l49.6-28.2l0.4-57.1L309.4,86.2z M201.9,189.1l-8.3,4.7l-44.4-26l0.3-51.5L194.2,91l44.4,26
		l-0.2,36.1L202,173.8L201.9,189.1L201.9,189.1z M295.6,228.6l-44.7,25.4l-44.4-26l0.3-51.5l44.7-25.4l44.4,26L295.6,228.6
		L295.6,228.6z M353.5,169.2l-44.7,25.4l-8-4.7l0.1-15.6l-36.4-21.3l0.2-35.8l44.7-25.4l44.4,26L353.5,169.2L353.5,169.2z"/>
	<path d="M352.3,120.9c-0.4-0.8-1.4-1.1-2.2-0.6l-41.1,23.3l-40.6-23.8c-0.8-0.5-1.8-0.2-2.2,0.6c-0.5,0.8-0.2,1.8,0.6,2.2
		l40.6,23.8l-0.3,43.6c0,0.9,0.7,1.6,1.6,1.6c0.9,0,1.6-0.7,1.6-1.6l0.3-43.6l41.1-23.3C352.5,122.7,352.8,121.7,352.3,120.9z"/>
	<path d="M237.2,120.1c-0.4-0.8-1.4-1.1-2.2-0.6l-41.1,23.3L153.3,119c-0.8-0.5-1.8-0.2-2.2,0.6c-0.5,0.8-0.2,1.8,0.6,2.2l40.6,23.8
		l-0.3,43.6c0,0.9,0.7,1.6,1.6,1.6c0.9,0,1.6-0.7,1.6-1.6l0.3-43.6l41.1-23.3C237.3,121.9,237.6,120.9,237.2,120.1z"/>
	<path d="M294.5,180.3c-0.4-0.8-1.4-1.1-2.2-0.6L251.2,203l-40.6-23.8c-0.8-0.5-1.8-0.2-2.2,0.6c-0.5,0.8-0.2,1.8,0.6,2.2l40.6,23.8
		l-0.3,43.6c0,0.9,0.7,1.6,1.6,1.6c0.9,0,1.6-0.7,1.6-1.6l0.3-43.6l41.1-23.3C294.7,182.1,294.9,181.1,294.5,180.3z"/>
</g>
</svg>
